<svg width="32" height="32" viewBox="0 0 32 32" fill="none" xmlns="http://www.w3.org/2000/svg">
  <rect width="32" height="32" rx="6" fill="#2C46B1"/>
  <path fill-rule="evenodd" clip-rule="evenodd" d="M8 6C8 5.44772 8.44772 5 9 5H23C23.5523 5 24 5.44772 24 6V26C24 26.5523 23.5523 27 23 27H9C8.44772 27 8 26.5523 8 26V6ZM10 7V25H22V7H10Z" fill="white"/>
  <path d="M12 10C12 9.44772 12.4477 9 13 9H19C19.5523 9 20 9.44772 20 10V22C20 22.5523 19.5523 23 19 23H13C12.4477 23 12 22.5523 12 22V10ZM14 11V21H18V11H14Z" fill="white"/>
</svg>
